<svg width="529" height="555" viewBox="0 0 529 555" fill="none" xmlns="http://www.w3.org/2000/svg">
<path d="M4.5 225L1 197C52.6099 252.167 86.2886 282.885 161.5 337C151.138 380.992 161.892 403.702 204 441.5C261.5 473.5 300.604 467.184 305 416.5C305 358.5 250.806 313.836 180 313C160.233 296.895 149.666 286.951 131.5 268C78.3006 197.483 60.0882 155.628 55 75.5C86.1757 59.9825 107.453 55.3685 155.5 58C210.5 -4 289.435 -31.2999 368 58C418.443 53.8869 443.792 60.3849 483 90C523.422 128.287 533.605 156.948 525 223.5C512 273.5 485.933 302.517 433.5 322V399C390.175 346.84 364.213 319.268 311 277C316.832 244.371 313.191 228.816 293 206.5L202 130.5C197 127 190.637 130.713 193 138.5L278 212.5C280 214 279.42 229.921 266.5 226L181.5 153C171 150 169.2 155.94 171 163L253 235C259 240 254.675 251.724 243 248.5L161 177.5C156 173.5 145.916 176.311 148.5 186.5L228 258C234.5 264 235 276 219.5 273.5L139.5 203C128.5 196 124.5 207 128.5 212.5C132.5 218 215.5 292.5 215.5 292.5L228 300.5C250.077 310.159 262.756 310.915 286 302.5L314 325L337.5 354.5L349.5 374L358.5 394L368.5 416.5L376 441.5L381.5 461.5L384.5 481L389.5 513.5L387.5 547V552L384.5 554H264.5H97L92.5 552L90 547V322L67 310L45.5 294L27.5 275L14 251.5L4.5 225Z" fill="url(#paint0_linear_1_3)"/>
<path d="M222 434C166 371.5 176.5 325 250 352C218.178 327.48 192.5 325 176.5 344.5C166.456 368.008 171.573 382.18 192 408.5C200.022 419.088 204.994 423.786 214.5 430.5L222 434Z" fill="url(#paint1_linear_1_3)"/>
<path d="M4.5 225L1 197C52.6099 252.167 86.2886 282.885 161.5 337C151.138 380.992 161.892 403.702 204 441.5C261.5 473.5 300.604 467.184 305 416.5C305 358.5 250.806 313.836 180 313C160.233 296.895 149.666 286.951 131.5 268C78.3006 197.483 60.0882 155.628 55 75.5C86.1757 59.9825 107.453 55.3685 155.5 58C210.5 -4 289.435 -31.2999 368 58C418.443 53.8869 443.792 60.3849 483 90C523.422 128.287 533.605 156.948 525 223.5C512 273.5 485.933 302.517 433.5 322V399C390.175 346.84 364.213 319.268 311 277C316.832 244.371 313.191 228.816 293 206.5L202 130.5C197 127 190.637 130.713 193 138.5L278 212.5C280 214 279.42 229.921 266.5 226L181.5 153C171 150 169.2 155.94 171 163L253 235C259 240 254.675 251.724 243 248.5L161 177.5C156 173.5 145.916 176.311 148.5 186.5L228 258C234.5 264 235 276 219.5 273.5L139.5 203C128.5 196 124.5 207 128.5 212.5C132.5 218 215.5 292.5 215.5 292.5L228 300.5C250.077 310.159 262.756 310.915 286 302.5L314 325L337.5 354.5L349.5 374L358.5 394L368.5 416.5L376 441.5L381.5 461.5L384.5 481L389.5 513.5L387.5 547V552L384.5 554H264.5H97L92.5 552L90 547V322L67 310L45.5 294L27.5 275L14 251.5L4.5 225Z" stroke="black"/>
<path d="M222 434C166 371.5 176.5 325 250 352C218.178 327.48 192.5 325 176.5 344.5C166.456 368.008 171.573 382.18 192 408.5C200.022 419.088 204.994 423.786 214.5 430.5L222 434Z" stroke="black"/>
<defs>
<linearGradient id="paint0_linear_1_3" x1="264.415" y1="0.807983" x2="264.415" y2="554" gradientUnits="userSpaceOnUse">
<stop stop-color="#F0E232"/>
<stop offset="0.5" stop-color="#ADC83A"/>
<stop offset="1" stop-color="#6FAC37"/>
</linearGradient>
<linearGradient id="paint1_linear_1_3" x1="264.415" y1="0.807983" x2="264.415" y2="554" gradientUnits="userSpaceOnUse">
<stop stop-color="#F0E232"/>
<stop offset="0.5" stop-color="#ADC83A"/>
<stop offset="1" stop-color="#6FAC37"/>
</linearGradient>
</defs>
</svg>
